<mxfile host="app.diagrams.net" modified="2024-04-17T11:31:50.532Z" agent="Mozilla/5.0 (Windows NT 10.0; Win64; x64) AppleWebKit/537.36 (KHTML, like Gecko) Chrome/123.0.0.0 Safari/537.36" etag="21-OeJdy0GRHpHY7DxWV" version="24.0.5" type="device">
  <diagram id="C5RBs43oDa-KdzZeNtuy" name="Page-1">
    <mxGraphModel dx="1221" dy="787" grid="0" gridSize="10" guides="1" tooltips="1" connect="1" arrows="1" fold="1" page="0" pageScale="1" pageWidth="827" pageHeight="1169" background="#000000" math="0" shadow="1">
      <root>
        <mxCell id="WIyWlLk6GJQsqaUBKTNV-0" />
        <mxCell id="WIyWlLk6GJQsqaUBKTNV-1" parent="WIyWlLk6GJQsqaUBKTNV-0" />
        <mxCell id="SNpm3om3-C7uNST0-aa4-1" value="Shopping cart" style="swimlane;fontStyle=2;align=center;verticalAlign=top;childLayout=stackLayout;horizontal=1;startSize=26;horizontalStack=0;resizeParent=1;resizeLast=0;collapsible=1;marginBottom=0;rounded=0;shadow=0;strokeWidth=1;labelBorderColor=#FFFFFF;fillColor=#f5f5f5;strokeColor=#666666;fontColor=#333333;" parent="WIyWlLk6GJQsqaUBKTNV-1" vertex="1">
          <mxGeometry x="43" y="314" width="160" height="160" as="geometry">
            <mxRectangle x="230" y="140" width="160" height="26" as="alternateBounds" />
          </mxGeometry>
        </mxCell>
        <mxCell id="SNpm3om3-C7uNST0-aa4-2" value="-Product Name" style="text;align=left;verticalAlign=top;spacingLeft=4;spacingRight=4;overflow=hidden;rotatable=0;points=[[0,0.5],[1,0.5]];portConstraint=eastwest;labelBorderColor=#FFFFFF;fillColor=#f5f5f5;strokeColor=#666666;fontColor=#333333;" parent="SNpm3om3-C7uNST0-aa4-1" vertex="1">
          <mxGeometry y="26" width="160" height="26" as="geometry" />
        </mxCell>
        <mxCell id="SNpm3om3-C7uNST0-aa4-3" value="-Product ID" style="text;align=left;verticalAlign=top;spacingLeft=4;spacingRight=4;overflow=hidden;rotatable=0;points=[[0,0.5],[1,0.5]];portConstraint=eastwest;rounded=0;shadow=0;html=0;labelBorderColor=#FFFFFF;fillColor=#f5f5f5;strokeColor=#666666;fontColor=#333333;" parent="SNpm3om3-C7uNST0-aa4-1" vertex="1">
          <mxGeometry y="52" width="160" height="38" as="geometry" />
        </mxCell>
        <mxCell id="SNpm3om3-C7uNST0-aa4-4" value="" style="line;html=1;strokeWidth=1;align=left;verticalAlign=middle;spacingTop=-1;spacingLeft=3;spacingRight=3;rotatable=0;labelPosition=right;points=[];portConstraint=eastwest;labelBorderColor=#FFFFFF;fillColor=#f5f5f5;strokeColor=#666666;fontColor=#333333;" parent="SNpm3om3-C7uNST0-aa4-1" vertex="1">
          <mxGeometry y="90" width="160" height="2" as="geometry" />
        </mxCell>
        <mxCell id="SNpm3om3-C7uNST0-aa4-5" value="+Add product to cart()" style="text;align=left;verticalAlign=top;spacingLeft=4;spacingRight=4;overflow=hidden;rotatable=0;points=[[0,0.5],[1,0.5]];portConstraint=eastwest;labelBorderColor=#FFFFFF;fillColor=#f5f5f5;strokeColor=#666666;fontColor=#333333;" parent="SNpm3om3-C7uNST0-aa4-1" vertex="1">
          <mxGeometry y="92" width="160" height="18" as="geometry" />
        </mxCell>
        <mxCell id="SNpm3om3-C7uNST0-aa4-6" value="+remove product from cart()" style="text;align=left;verticalAlign=top;spacingLeft=4;spacingRight=4;overflow=hidden;rotatable=0;points=[[0,0.5],[1,0.5]];portConstraint=eastwest;labelBorderColor=#FFFFFF;fillColor=#f5f5f5;strokeColor=#666666;fontColor=#333333;" parent="SNpm3om3-C7uNST0-aa4-1" vertex="1">
          <mxGeometry y="110" width="160" height="24" as="geometry" />
        </mxCell>
        <mxCell id="SNpm3om3-C7uNST0-aa4-7" value="+checkOut()" style="text;align=left;verticalAlign=top;spacingLeft=4;spacingRight=4;overflow=hidden;rotatable=0;points=[[0,0.5],[1,0.5]];portConstraint=eastwest;labelBorderColor=#FFFFFF;fillColor=#f5f5f5;strokeColor=#666666;fontColor=#333333;" parent="SNpm3om3-C7uNST0-aa4-1" vertex="1">
          <mxGeometry y="134" width="160" height="20" as="geometry" />
        </mxCell>
        <mxCell id="SNpm3om3-C7uNST0-aa4-8" value="User" style="swimlane;fontStyle=0;align=center;verticalAlign=top;childLayout=stackLayout;horizontal=1;startSize=26;horizontalStack=0;resizeParent=1;resizeLast=0;collapsible=1;marginBottom=0;rounded=0;shadow=0;strokeWidth=1;labelBorderColor=#FFFFFF;fillColor=#f5f5f5;strokeColor=#666666;fontColor=#333333;" parent="WIyWlLk6GJQsqaUBKTNV-1" vertex="1">
          <mxGeometry x="280" y="154" width="160" height="130" as="geometry">
            <mxRectangle x="130" y="380" width="160" height="26" as="alternateBounds" />
          </mxGeometry>
        </mxCell>
        <mxCell id="SNpm3om3-C7uNST0-aa4-9" value="-Username" style="text;align=left;verticalAlign=top;spacingLeft=4;spacingRight=4;overflow=hidden;rotatable=0;points=[[0,0.5],[1,0.5]];portConstraint=eastwest;labelBorderColor=#FFFFFF;fillColor=#f5f5f5;strokeColor=#666666;fontColor=#333333;" parent="SNpm3om3-C7uNST0-aa4-8" vertex="1">
          <mxGeometry y="26" width="160" height="26" as="geometry" />
        </mxCell>
        <mxCell id="SNpm3om3-C7uNST0-aa4-10" value="-Password" style="text;align=left;verticalAlign=top;spacingLeft=4;spacingRight=4;overflow=hidden;rotatable=0;points=[[0,0.5],[1,0.5]];portConstraint=eastwest;rounded=0;shadow=0;html=0;labelBorderColor=#FFFFFF;fillColor=#f5f5f5;strokeColor=#666666;fontColor=#333333;" parent="SNpm3om3-C7uNST0-aa4-8" vertex="1">
          <mxGeometry y="52" width="160" height="26" as="geometry" />
        </mxCell>
        <mxCell id="SNpm3om3-C7uNST0-aa4-11" value="" style="line;html=1;strokeWidth=1;align=left;verticalAlign=middle;spacingTop=-1;spacingLeft=3;spacingRight=3;rotatable=0;labelPosition=right;points=[];portConstraint=eastwest;labelBorderColor=#FFFFFF;fillColor=#f5f5f5;strokeColor=#666666;fontColor=#333333;" parent="SNpm3om3-C7uNST0-aa4-8" vertex="1">
          <mxGeometry y="78" width="160" height="8" as="geometry" />
        </mxCell>
        <mxCell id="SNpm3om3-C7uNST0-aa4-12" value="+getSession()" style="text;align=left;verticalAlign=top;spacingLeft=4;spacingRight=4;overflow=hidden;rotatable=0;points=[[0,0.5],[1,0.5]];portConstraint=eastwest;fontStyle=4;labelBorderColor=#FFFFFF;fillColor=#f5f5f5;strokeColor=#666666;fontColor=#333333;" parent="SNpm3om3-C7uNST0-aa4-8" vertex="1">
          <mxGeometry y="86" width="160" height="26" as="geometry" />
        </mxCell>
        <mxCell id="SNpm3om3-C7uNST0-aa4-13" value="Customer" style="swimlane;fontStyle=0;align=center;verticalAlign=top;childLayout=stackLayout;horizontal=1;startSize=26;horizontalStack=0;resizeParent=1;resizeLast=0;collapsible=1;marginBottom=0;rounded=0;shadow=0;strokeWidth=1;labelBorderColor=#FFFFFF;fillColor=#f5f5f5;strokeColor=#666666;fontColor=#333333;" parent="WIyWlLk6GJQsqaUBKTNV-1" vertex="1">
          <mxGeometry x="285" y="320" width="150" height="160" as="geometry">
            <mxRectangle x="340" y="380" width="170" height="26" as="alternateBounds" />
          </mxGeometry>
        </mxCell>
        <mxCell id="SNpm3om3-C7uNST0-aa4-14" value="-Name" style="text;align=left;verticalAlign=top;spacingLeft=4;spacingRight=4;overflow=hidden;rotatable=0;points=[[0,0.5],[1,0.5]];portConstraint=eastwest;labelBorderColor=#FFFFFF;fillColor=#f5f5f5;strokeColor=#666666;fontColor=#333333;" parent="SNpm3om3-C7uNST0-aa4-13" vertex="1">
          <mxGeometry y="26" width="150" height="26" as="geometry" />
        </mxCell>
        <mxCell id="SNpm3om3-C7uNST0-aa4-15" value="-billing/Address" style="text;align=left;verticalAlign=top;spacingLeft=4;spacingRight=4;overflow=hidden;rotatable=0;points=[[0,0.5],[1,0.5]];portConstraint=eastwest;labelBorderColor=#FFFFFF;fillColor=#f5f5f5;strokeColor=#666666;fontColor=#333333;" parent="SNpm3om3-C7uNST0-aa4-13" vertex="1">
          <mxGeometry y="52" width="150" height="26" as="geometry" />
        </mxCell>
        <mxCell id="SNpm3om3-C7uNST0-aa4-16" value="-default shipping Address" style="text;align=left;verticalAlign=top;spacingLeft=4;spacingRight=4;overflow=hidden;rotatable=0;points=[[0,0.5],[1,0.5]];portConstraint=eastwest;labelBorderColor=#FFFFFF;fillColor=#f5f5f5;strokeColor=#666666;fontColor=#333333;" parent="SNpm3om3-C7uNST0-aa4-13" vertex="1">
          <mxGeometry y="78" width="150" height="24" as="geometry" />
        </mxCell>
        <mxCell id="SNpm3om3-C7uNST0-aa4-17" value="" style="line;html=1;strokeWidth=1;align=left;verticalAlign=middle;spacingTop=-1;spacingLeft=3;spacingRight=3;rotatable=0;labelPosition=right;points=[];portConstraint=eastwest;labelBorderColor=#FFFFFF;fillColor=#f5f5f5;strokeColor=#666666;fontColor=#333333;" parent="SNpm3om3-C7uNST0-aa4-13" vertex="1">
          <mxGeometry y="102" width="150" height="8" as="geometry" />
        </mxCell>
        <mxCell id="SNpm3om3-C7uNST0-aa4-18" value="+signUp()" style="text;align=left;verticalAlign=top;spacingLeft=4;spacingRight=4;overflow=hidden;rotatable=0;points=[[0,0.5],[1,0.5]];portConstraint=eastwest;labelBorderColor=#FFFFFF;fillColor=#f5f5f5;strokeColor=#666666;fontColor=#333333;" parent="SNpm3om3-C7uNST0-aa4-13" vertex="1">
          <mxGeometry y="110" width="150" height="24" as="geometry" />
        </mxCell>
        <mxCell id="SNpm3om3-C7uNST0-aa4-19" value="+login()" style="text;align=left;verticalAlign=top;spacingLeft=4;spacingRight=4;overflow=hidden;rotatable=0;points=[[0,0.5],[1,0.5]];portConstraint=eastwest;labelBorderColor=#FFFFFF;fillColor=#f5f5f5;strokeColor=#666666;fontColor=#333333;" parent="SNpm3om3-C7uNST0-aa4-13" vertex="1">
          <mxGeometry y="134" width="150" height="24" as="geometry" />
        </mxCell>
        <mxCell id="SNpm3om3-C7uNST0-aa4-20" value="Order details" style="swimlane;fontStyle=0;align=center;verticalAlign=top;childLayout=stackLayout;horizontal=1;startSize=26;horizontalStack=0;resizeParent=1;resizeLast=0;collapsible=1;marginBottom=0;rounded=0;shadow=0;strokeWidth=1;labelBorderColor=#FFFFFF;fillColor=#f5f5f5;strokeColor=#666666;fontColor=#333333;" parent="WIyWlLk6GJQsqaUBKTNV-1" vertex="1">
          <mxGeometry x="285" y="517" width="160" height="216" as="geometry">
            <mxRectangle x="550" y="140" width="160" height="26" as="alternateBounds" />
          </mxGeometry>
        </mxCell>
        <mxCell id="SNpm3om3-C7uNST0-aa4-21" value="-id" style="text;align=left;verticalAlign=top;spacingLeft=4;spacingRight=4;overflow=hidden;rotatable=0;points=[[0,0.5],[1,0.5]];portConstraint=eastwest;labelBorderColor=#FFFFFF;fillColor=#f5f5f5;strokeColor=#666666;fontColor=#333333;" parent="SNpm3om3-C7uNST0-aa4-20" vertex="1">
          <mxGeometry y="26" width="160" height="26" as="geometry" />
        </mxCell>
        <mxCell id="SNpm3om3-C7uNST0-aa4-22" value="-order id" style="text;align=left;verticalAlign=top;spacingLeft=4;spacingRight=4;overflow=hidden;rotatable=0;points=[[0,0.5],[1,0.5]];portConstraint=eastwest;rounded=0;shadow=0;html=0;labelBorderColor=#FFFFFF;fillColor=#f5f5f5;strokeColor=#666666;fontColor=#333333;" parent="SNpm3om3-C7uNST0-aa4-20" vertex="1">
          <mxGeometry y="52" width="160" height="26" as="geometry" />
        </mxCell>
        <mxCell id="SNpm3om3-C7uNST0-aa4-23" value="shipping type" style="text;align=left;verticalAlign=top;spacingLeft=4;spacingRight=4;overflow=hidden;rotatable=0;points=[[0,0.5],[1,0.5]];portConstraint=eastwest;rounded=0;shadow=0;html=0;labelBorderColor=#FFFFFF;fillColor=#f5f5f5;strokeColor=#666666;fontColor=#333333;" parent="SNpm3om3-C7uNST0-aa4-20" vertex="1">
          <mxGeometry y="78" width="160" height="26" as="geometry" />
        </mxCell>
        <mxCell id="SNpm3om3-C7uNST0-aa4-25" value="shipping cost" style="text;align=left;verticalAlign=top;spacingLeft=4;spacingRight=4;overflow=hidden;rotatable=0;points=[[0,0.5],[1,0.5]];portConstraint=eastwest;rounded=0;shadow=0;html=0;labelBorderColor=#FFFFFF;fillColor=#f5f5f5;strokeColor=#666666;fontColor=#333333;" parent="SNpm3om3-C7uNST0-aa4-20" vertex="1">
          <mxGeometry y="104" width="160" height="26" as="geometry" />
        </mxCell>
        <mxCell id="SNpm3om3-C7uNST0-aa4-26" value="billingAddress" style="text;align=left;verticalAlign=top;spacingLeft=4;spacingRight=4;overflow=hidden;rotatable=0;points=[[0,0.5],[1,0.5]];portConstraint=eastwest;rounded=0;shadow=0;html=0;labelBorderColor=#FFFFFF;fillColor=#f5f5f5;strokeColor=#666666;fontColor=#333333;" parent="SNpm3om3-C7uNST0-aa4-20" vertex="1">
          <mxGeometry y="130" width="160" height="26" as="geometry" />
        </mxCell>
        <mxCell id="SNpm3om3-C7uNST0-aa4-27" value="-create Date" style="text;align=left;verticalAlign=top;spacingLeft=4;spacingRight=4;overflow=hidden;rotatable=0;points=[[0,0.5],[1,0.5]];portConstraint=eastwest;labelBorderColor=#FFFFFF;fillColor=#f5f5f5;strokeColor=#666666;fontColor=#333333;" parent="SNpm3om3-C7uNST0-aa4-20" vertex="1">
          <mxGeometry y="156" width="160" height="26" as="geometry" />
        </mxCell>
        <mxCell id="SNpm3om3-C7uNST0-aa4-28" value="" style="line;html=1;strokeWidth=1;align=left;verticalAlign=middle;spacingTop=-1;spacingLeft=3;spacingRight=3;rotatable=0;labelPosition=right;points=[];portConstraint=eastwest;labelBorderColor=#FFFFFF;fillColor=#f5f5f5;strokeColor=#666666;fontColor=#333333;" parent="SNpm3om3-C7uNST0-aa4-20" vertex="1">
          <mxGeometry y="182" width="160" height="8" as="geometry" />
        </mxCell>
        <mxCell id="SNpm3om3-C7uNST0-aa4-29" value="+cancelOrder()" style="text;align=left;verticalAlign=top;spacingLeft=4;spacingRight=4;overflow=hidden;rotatable=0;points=[[0,0.5],[1,0.5]];portConstraint=eastwest;labelBorderColor=#FFFFFF;fillColor=#f5f5f5;strokeColor=#666666;fontColor=#333333;" parent="SNpm3om3-C7uNST0-aa4-20" vertex="1">
          <mxGeometry y="190" width="160" height="26" as="geometry" />
        </mxCell>
        <mxCell id="SNpm3om3-C7uNST0-aa4-30" value="Order" style="swimlane;fontStyle=0;align=center;verticalAlign=top;childLayout=stackLayout;horizontal=1;startSize=26;horizontalStack=0;resizeParent=1;resizeLast=0;collapsible=1;marginBottom=0;rounded=0;shadow=0;strokeWidth=1;labelBorderColor=#FFFFFF;fillColor=#f5f5f5;strokeColor=#666666;fontColor=#333333;" parent="WIyWlLk6GJQsqaUBKTNV-1" vertex="1">
          <mxGeometry x="567" y="286" width="160" height="216" as="geometry">
            <mxRectangle x="550" y="140" width="160" height="26" as="alternateBounds" />
          </mxGeometry>
        </mxCell>
        <mxCell id="SNpm3om3-C7uNST0-aa4-31" value="-id" style="text;align=left;verticalAlign=top;spacingLeft=4;spacingRight=4;overflow=hidden;rotatable=0;points=[[0,0.5],[1,0.5]];portConstraint=eastwest;labelBorderColor=#FFFFFF;fillColor=#f5f5f5;strokeColor=#666666;fontColor=#333333;" parent="SNpm3om3-C7uNST0-aa4-30" vertex="1">
          <mxGeometry y="26" width="160" height="26" as="geometry" />
        </mxCell>
        <mxCell id="SNpm3om3-C7uNST0-aa4-32" value="-customer id" style="text;align=left;verticalAlign=top;spacingLeft=4;spacingRight=4;overflow=hidden;rotatable=0;points=[[0,0.5],[1,0.5]];portConstraint=eastwest;rounded=0;shadow=0;html=0;labelBorderColor=#FFFFFF;fillColor=#f5f5f5;strokeColor=#666666;fontColor=#333333;" parent="SNpm3om3-C7uNST0-aa4-30" vertex="1">
          <mxGeometry y="52" width="160" height="26" as="geometry" />
        </mxCell>
        <mxCell id="SNpm3om3-C7uNST0-aa4-33" value="-order date" style="text;align=left;verticalAlign=top;spacingLeft=4;spacingRight=4;overflow=hidden;rotatable=0;points=[[0,0.5],[1,0.5]];portConstraint=eastwest;rounded=0;shadow=0;html=0;labelBorderColor=#FFFFFF;fillColor=#f5f5f5;strokeColor=#666666;fontColor=#333333;" parent="SNpm3om3-C7uNST0-aa4-30" vertex="1">
          <mxGeometry y="78" width="160" height="26" as="geometry" />
        </mxCell>
        <mxCell id="SNpm3om3-C7uNST0-aa4-34" value="-status" style="text;align=left;verticalAlign=top;spacingLeft=4;spacingRight=4;overflow=hidden;rotatable=0;points=[[0,0.5],[1,0.5]];portConstraint=eastwest;rounded=0;shadow=0;html=0;labelBorderColor=#FFFFFF;fillColor=#f5f5f5;strokeColor=#666666;fontColor=#333333;" parent="SNpm3om3-C7uNST0-aa4-30" vertex="1">
          <mxGeometry y="104" width="160" height="26" as="geometry" />
        </mxCell>
        <mxCell id="SNpm3om3-C7uNST0-aa4-35" value="-price" style="text;align=left;verticalAlign=top;spacingLeft=4;spacingRight=4;overflow=hidden;rotatable=0;points=[[0,0.5],[1,0.5]];portConstraint=eastwest;rounded=0;shadow=0;html=0;labelBorderColor=#FFFFFF;fillColor=#f5f5f5;strokeColor=#666666;fontColor=#333333;" parent="SNpm3om3-C7uNST0-aa4-30" vertex="1">
          <mxGeometry y="130" width="160" height="26" as="geometry" />
        </mxCell>
        <mxCell id="SNpm3om3-C7uNST0-aa4-36" value="" style="line;html=1;strokeWidth=1;align=left;verticalAlign=middle;spacingTop=-1;spacingLeft=3;spacingRight=3;rotatable=0;labelPosition=right;points=[];portConstraint=eastwest;labelBorderColor=#FFFFFF;fillColor=#f5f5f5;strokeColor=#666666;fontColor=#333333;" parent="SNpm3om3-C7uNST0-aa4-30" vertex="1">
          <mxGeometry y="156" width="160" height="8" as="geometry" />
        </mxCell>
        <mxCell id="SNpm3om3-C7uNST0-aa4-37" value="+updateOrderStatus()" style="text;align=left;verticalAlign=top;spacingLeft=4;spacingRight=4;overflow=hidden;rotatable=0;points=[[0,0.5],[1,0.5]];portConstraint=eastwest;labelBorderColor=#FFFFFF;fillColor=#f5f5f5;strokeColor=#666666;fontColor=#333333;" parent="SNpm3om3-C7uNST0-aa4-30" vertex="1">
          <mxGeometry y="164" width="160" height="26" as="geometry" />
        </mxCell>
        <mxCell id="SNpm3om3-C7uNST0-aa4-38" value="+placeOrder()" style="text;align=left;verticalAlign=top;spacingLeft=4;spacingRight=4;overflow=hidden;rotatable=0;points=[[0,0.5],[1,0.5]];portConstraint=eastwest;labelBorderColor=#FFFFFF;fillColor=#f5f5f5;strokeColor=#666666;fontColor=#333333;" parent="SNpm3om3-C7uNST0-aa4-30" vertex="1">
          <mxGeometry y="190" width="160" height="26" as="geometry" />
        </mxCell>
        <mxCell id="SNpm3om3-C7uNST0-aa4-39" value="" style="endArrow=classic;html=1;rounded=0;entryX=0.5;entryY=1;entryDx=0;entryDy=0;exitX=0.5;exitY=0;exitDx=0;exitDy=0;fontColor=#FFFFFF;labelBorderColor=#FFFFFF;fillColor=#f5f5f5;strokeColor=#666666;" parent="WIyWlLk6GJQsqaUBKTNV-1" source="SNpm3om3-C7uNST0-aa4-13" target="SNpm3om3-C7uNST0-aa4-8" edge="1">
          <mxGeometry width="50" height="50" relative="1" as="geometry">
            <mxPoint x="350" y="320" as="sourcePoint" />
            <mxPoint x="400" y="270" as="targetPoint" />
          </mxGeometry>
        </mxCell>
        <mxCell id="SNpm3om3-C7uNST0-aa4-42" value="1" style="text;html=1;align=center;verticalAlign=middle;resizable=0;points=[];autosize=1;strokeColor=#666666;fillColor=#f5f5f5;labelBorderColor=#FFFFFF;fontColor=#333333;" parent="WIyWlLk6GJQsqaUBKTNV-1" vertex="1">
          <mxGeometry x="650" y="505" width="30" height="30" as="geometry" />
        </mxCell>
        <mxCell id="SNpm3om3-C7uNST0-aa4-43" value="1" style="text;html=1;align=center;verticalAlign=middle;resizable=0;points=[];autosize=1;strokeColor=#666666;fillColor=#f5f5f5;labelBorderColor=#FFFFFF;fontColor=#333333;" parent="WIyWlLk6GJQsqaUBKTNV-1" vertex="1">
          <mxGeometry x="255" y="360" width="30" height="30" as="geometry" />
        </mxCell>
        <mxCell id="SNpm3om3-C7uNST0-aa4-44" value="1" style="text;html=1;align=center;verticalAlign=middle;resizable=0;points=[];autosize=1;strokeColor=#666666;fillColor=#f5f5f5;labelBorderColor=#FFFFFF;fontColor=#333333;" parent="WIyWlLk6GJQsqaUBKTNV-1" vertex="1">
          <mxGeometry x="440" y="400" width="30" height="30" as="geometry" />
        </mxCell>
        <mxCell id="SNpm3om3-C7uNST0-aa4-45" value="1" style="text;html=1;align=center;verticalAlign=middle;resizable=0;points=[];autosize=1;strokeColor=#666666;fillColor=#f5f5f5;labelBorderColor=#FFFFFF;fontColor=#333333;" parent="WIyWlLk6GJQsqaUBKTNV-1" vertex="1">
          <mxGeometry x="440" y="680" width="30" height="30" as="geometry" />
        </mxCell>
        <mxCell id="SNpm3om3-C7uNST0-aa4-46" value="0..*" style="text;html=1;align=center;verticalAlign=middle;resizable=0;points=[];autosize=1;strokeColor=#666666;fillColor=#f5f5f5;labelBorderColor=#FFFFFF;fontColor=#333333;" parent="WIyWlLk6GJQsqaUBKTNV-1" vertex="1">
          <mxGeometry x="527" y="372" width="40" height="30" as="geometry" />
        </mxCell>
        <mxCell id="SNpm3om3-C7uNST0-aa4-48" value="&lt;b&gt;&lt;i&gt;&lt;font style=&quot;font-size: 25px;&quot;&gt;&lt;u&gt;Class Diagram&lt;/u&gt;&lt;/font&gt;&lt;/i&gt;&lt;/b&gt;" style="text;html=1;align=center;verticalAlign=middle;resizable=0;points=[];autosize=1;strokeColor=none;fillColor=none;fontColor=#FFFFFF;" parent="WIyWlLk6GJQsqaUBKTNV-1" vertex="1">
          <mxGeometry x="260" y="33" width="200" height="40" as="geometry" />
        </mxCell>
        <mxCell id="TSZwbKPeq5aykjA1y-sf-1" style="edgeStyle=orthogonalEdgeStyle;rounded=0;sketch=1;hachureGap=4;jiggle=2;curveFitting=1;orthogonalLoop=1;jettySize=auto;html=1;fontFamily=Architects Daughter;fontSource=https%3A%2F%2Ffonts.googleapis.com%2Fcss%3Ffamily%3DArchitects%2BDaughter;fontColor=#FFFFFF;labelBorderColor=#FFFFFF;fillColor=#f5f5f5;strokeColor=#666666;" edge="1" parent="WIyWlLk6GJQsqaUBKTNV-1" source="SNpm3om3-C7uNST0-aa4-3" target="SNpm3om3-C7uNST0-aa4-15">
          <mxGeometry relative="1" as="geometry" />
        </mxCell>
        <mxCell id="TSZwbKPeq5aykjA1y-sf-3" style="edgeStyle=orthogonalEdgeStyle;rounded=0;sketch=1;hachureGap=4;jiggle=2;curveFitting=1;orthogonalLoop=1;jettySize=auto;html=1;fontFamily=Architects Daughter;fontSource=https%3A%2F%2Ffonts.googleapis.com%2Fcss%3Ffamily%3DArchitects%2BDaughter;entryX=0.467;entryY=0.966;entryDx=0;entryDy=0;entryPerimeter=0;fontColor=#FFFFFF;labelBorderColor=#FFFFFF;fillColor=#f5f5f5;strokeColor=#666666;" edge="1" parent="WIyWlLk6GJQsqaUBKTNV-1" source="SNpm3om3-C7uNST0-aa4-25" target="SNpm3om3-C7uNST0-aa4-38">
          <mxGeometry relative="1" as="geometry">
            <mxPoint x="633" y="545" as="targetPoint" />
          </mxGeometry>
        </mxCell>
        <mxCell id="TSZwbKPeq5aykjA1y-sf-4" style="edgeStyle=orthogonalEdgeStyle;rounded=0;sketch=1;hachureGap=4;jiggle=2;curveFitting=1;orthogonalLoop=1;jettySize=auto;html=1;entryX=0.991;entryY=0.208;entryDx=0;entryDy=0;entryPerimeter=0;fontFamily=Architects Daughter;fontSource=https%3A%2F%2Ffonts.googleapis.com%2Fcss%3Ffamily%3DArchitects%2BDaughter;fontColor=#FFFFFF;labelBorderColor=#FFFFFF;fillColor=#f5f5f5;strokeColor=#666666;" edge="1" parent="WIyWlLk6GJQsqaUBKTNV-1" source="SNpm3om3-C7uNST0-aa4-34" target="SNpm3om3-C7uNST0-aa4-16">
          <mxGeometry relative="1" as="geometry" />
        </mxCell>
      </root>
    </mxGraphModel>
  </diagram>
</mxfile>
